<svg viewBox="0 0 24 24" fill="black" xmlns="http://www.w3.org/2000/svg">
  <path d="M12 0C9.9 0 8.3 1.1 7.3 2.9 6.1 2.5 4.5 2.3 3 2.7 1.3 3.1 0 4.7 0 6.5 0 8.1 1.1 9.4 2.6 10.2 1.9 11.3 1.4 12.6 1.4 14.1 1.4 16.8 3.3 19.1 5.8 19.5 6.1 20.1 6.6 20.6 7.2 20.9 6.7 21.8 6.3 22.9 6.3 24H17.7C17.7 22.9 17.3 21.8 16.8 20.9 17.4 20.6 17.9 20.1 18.2 19.5 20.7 19.1 22.6 16.8 22.6 14.1 22.6 12.6 22.1 11.3 21.4 10.2 22.9 9.4 24 8.1 24 6.5 24 4.7 22.7 3.1 21 2.7 19.5 2.3 17.9 2.5 16.7 2.9 15.7 1.1 14.1 0 12 0zM9.3 4.5C9.8 4.5 10.3 4.8 10.3 5.4 10.3 6 9.8 6.3 9.3 6.3 8.7 6.3 8.2 6 8.2 5.4 8.2 4.8 8.7 4.5 9.3 4.5zM14.7 4.5C15.2 4.5 15.7 4.8 15.7 5.4 15.7 6 15.2 6.3 14.7 6.3 14.1 6.3 13.6 6 13.6 5.4 13.6 4.8 14.1 4.5 14.7 4.5z"/>
</svg>

